<svg xmlns="http://www.w3.org/2000/svg" version="1.1" xmlns:xlink="http://www.w3.org/1999/xlink" viewBox="0 0 200 200" width="200" height="200"><metadata><rdf:RDF xmlns:rdf="http://www.w3.org/1999/02/22-rdf-syntax-ns#" xmlns:dc="http://purl.org/dc/elements/1.1/"><rdf:Description><dc:creator>RealFaviconGenerator</dc:creator><dc:source>https://realfavicongenerator.net</dc:source></rdf:Description></rdf:RDF></metadata><rect width="200" height="200" fill="url('#gradient')"></rect><defs><linearGradient id="gradient" gradientTransform="rotate(45 0.5 0.5)"><stop offset="0%" stop-color="#6abceb"></stop><stop offset="100%" stop-color="#c9e6f7"></stop></linearGradient></defs><g><g fill="#2c1f37" transform="matrix(7.68320133388912,0,0,7.68320133388912,5.343623278438173,154.5935174179554)" stroke="#15374d" stroke-width="0.2"><path d="M11.65-12.46L4.92-2.64L11.72-2.64L11.72 0L0.64 0L0.64-1.81L7.42-11.57L0.61-11.57L0.61-14.22L11.65-14.22L11.65-12.46ZM20.61-3.78L20.61-3.78Q20.61-4.53 20.07-4.95Q19.54-5.37 18.20-5.82Q16.87-6.27 16.02-6.69L16.02-6.69Q13.25-8.05 13.25-10.42L13.25-10.42Q13.25-11.60 13.94-12.50Q14.63-13.41 15.89-13.91Q17.15-14.41 18.72-14.41L18.72-14.41Q20.25-14.41 21.47-13.87Q22.69-13.32 23.36-12.31Q24.03-11.30 24.03-10L24.03-10L20.62-10Q20.62-10.87 20.08-11.35Q19.55-11.83 18.64-11.83L18.64-11.83Q17.72-11.83 17.19-11.42Q16.66-11.02 16.66-10.39L16.66-10.39Q16.66-9.84 17.25-9.40Q17.83-8.96 19.31-8.48Q20.78-8.01 21.73-7.46L21.73-7.46Q24.03-6.13 24.03-3.80L24.03-3.80Q24.03-1.93 22.63-0.87Q21.22 0.20 18.77 0.20L18.77 0.20Q17.04 0.20 15.64-0.42Q14.24-1.04 13.53-2.12Q12.82-3.20 12.82-4.61L12.82-4.61L16.26-4.61Q16.26-3.47 16.85-2.92Q17.44-2.38 18.77-2.38L18.77-2.38Q19.62-2.38 20.11-2.75Q20.61-3.12 20.61-3.78Z"></path></g></g></svg>